<?xml version="1.0" standalone="no"?><!DOCTYPE svg PUBLIC "-//W3C//DTD SVG 1.1//EN" "http://www.w3.org/Graphics/SVG/1.1/DTD/svg11.dtd"><svg t="1668500929587" class="icon" viewBox="0 0 1024 1024" version="1.1" xmlns="http://www.w3.org/2000/svg" p-id="7817" xmlns:xlink="http://www.w3.org/1999/xlink" width="200" height="200"><path d="M670.8 522c0-20 1.2-39.8 3.8-59.4 2.4-19.8 6.2-39.2 11-58.4s11-38 18.2-56.4 15.6-36.2 25.2-53.4l15.2-28c-32-8-64.4-13-97.2-15-43.8-35.6-109.2-78-184.6-91.4L416 150.8l26.8 130.4c-83.4 29.8-156.8 90.4-205.6 132-9.4-8.4-19.2-16.4-29.6-24.4-79.4-61.2-165.2-67-168.8-67.2l-38.8-2 5.4 40.8c0.6 4.2 13.6 94.4 63.2 161.4C19 588.8 6 678.8 5.4 683L0 724.4l38.8-2.8c3.6-0.2 89.4-6 168.8-67.2 10.2-7.8 19.8-15.8 29.2-24 48.8 41.8 122.2 102.6 205.8 132.4L416 893.2l46.4-9c75-13.4 140.2-55.6 184-91.4 33.4-2 66.2-7.2 98.6-15.2l-15.8-27.8c-9.4-17.2-17.8-35-25.2-53.4-7.2-18.4-13.4-37.2-18.2-56.4-5-19.2-8.6-38.8-11-58.6-2.6-19.6-4-39.4-4-59.4z" p-id="7818" fill="#bfcbd9"></path><path d="M832 522c-1 0-2 0-3.2-0.2-1-0.2-2-0.2-3.2-0.4-1-0.2-2-0.4-3-0.8s-2-0.6-3-1.2c-1-0.4-2-0.8-2.8-1.4-1-0.6-1.8-1-2.6-1.8-0.8-0.6-1.8-1.2-2.6-2s-1.6-1.4-2.4-2.2c-0.8-0.8-1.4-1.6-2.2-2.4-0.6-0.8-1.2-1.8-1.8-2.6-0.6-1-1.2-1.8-1.6-2.8-0.4-1-1-2-1.4-3-0.4-1-0.8-2-1-3.2s-0.6-2.2-0.8-3.2c-0.2-1-0.4-2.2-0.4-3.2-0.2-1.2-0.2-2.2-0.2-3.4 0-1.2 0-2.2 0.2-3.4 0.2-1.2 0.2-2.2 0.4-3.2s0.4-2.2 0.8-3.2 0.6-2 1-3.2c0.4-1 0.8-2 1.4-3 0.4-1 1-2 1.6-2.8 0.6-1 1.2-1.8 1.8-2.6 0.6-0.8 1.4-1.6 2.2-2.4 0.8-0.8 1.6-1.6 2.4-2.2 0.8-0.8 1.6-1.4 2.6-2 0.8-0.6 1.8-1.2 2.6-1.8 1-0.6 1.8-1 2.8-1.4l3-1.2c1-0.4 2-0.6 3-0.8 1-0.2 2-0.4 3.2-0.4 1-0.2 2-0.2 3.2-0.2s2 0 3.2 0.2c1 0.2 2 0.2 3.2 0.4 1 0.2 2 0.4 3 0.8s2 0.6 3 1.2c1 0.4 2 0.8 2.8 1.4 1 0.6 1.8 1 2.6 1.8 0.8 0.6 1.8 1.2 2.6 2s1.6 1.4 2.4 2.2c0.8 0.8 1.4 1.6 2.2 2.4s1.2 1.8 1.8 2.6c0.6 1 1.2 1.8 1.6 2.8 0.4 1 1 2 1.4 3 0.4 1 0.8 2 1 3.2 0.4 1 0.6 2.2 0.8 3.2 0.2 1 0.4 2.2 0.4 3.2 0.2 1.2 0.2 2.2 0.2 3.4 0 1.2 0 2.2-0.2 3.4-0.2 1.2-0.2 2.2-0.4 3.2s-0.4 2.2-0.8 3.2-0.6 2-1 3.2c-0.4 1-0.8 2-1.4 3-0.4 1-1 2-1.6 2.8-0.6 1-1.2 1.8-1.8 2.6s-1.4 1.6-2.2 2.4c-0.8 0.8-1.6 1.6-2.4 2.2-0.8 0.8-1.6 1.4-2.6 2-0.8 0.6-1.8 1.2-2.6 1.8-1 0.6-1.8 1-2.8 1.4l-3 1.2c-1 0.4-2 0.6-3 0.8-1 0.2-2 0.4-3.2 0.4-1.2 0.2-2.2 0.2-3.2 0.2z m167.2-72.2c-11.8-20.8-33-52.6-68.4-85-18.4-16.6-38-31.6-58.8-44.6-20.8-13.2-42.6-24.2-65.2-33.4L784.4 328c-4 7.4-7.8 14.8-11.4 22.4-3.6 7.6-6.8 15.2-10 23.2-3 7.8-6 15.8-8.6 23.8-2.6 8-5 16.2-7 24.2-2 8.2-4 16.4-5.4 24.8-1.6 8.4-2.8 16.6-4 25-1 8.4-1.8 16.8-2.4 25.2-0.6 8.4-0.8 17-0.8 25.4 0 8.4 0.2 17 0.8 25.4 0.6 8.4 1.4 16.8 2.4 25.2 1 8.4 2.4 16.8 4 25 1.6 8.4 3.4 16.6 5.4 24.8 2 8.2 4.4 16.2 7 24.2 2.6 8 5.4 16 8.6 23.8 3 7.8 6.4 15.6 10 23.2 3.6 7.6 7.4 15 11.4 22.4l23.6 41.2c22.4-9 44-20 64.6-33 20.6-13 40-27.6 58.2-44 63.4-58 93.4-130.6 93.4-158-0.2-26.2-16.2-56.6-25-72.4z" p-id="7819" fill="#bfcbd9"></path></svg>